Coordinates
version=1
nRows=8
nColumns=36
inDegrees=yes

Units are S.I. units (second, meters, Newtons, ...)
If the header above contains a line with 'inDegrees', this indicates whether rotational values are in degrees (yes) or radians (no).

endheader
time	pelvis_tilt	pelvis_list	pelvis_rotation	pelvis_tx	pelvis_ty	pelvis_tz	hip_flexion_r	hip_adduction_r	hip_rotation_r	knee_angle_r	knee_angle_r_beta	ankle_angle_r	subtalar_angle_r	mtp_angle_r	hip_flexion_l	hip_adduction_l	hip_rotation_l	knee_angle_l	knee_angle_l_beta	ankle_angle_l	subtalar_angle_l	mtp_angle_l	lumbar_extension	lumbar_bending	lumbar_rotation	arm_flex_r	arm_add_r	arm_rot_r	elbow_flex_r	pro_sup_r	arm_flex_l	arm_add_l	arm_rot_l	elbow_flex_l	pro_sup_l
      0.34000000	      1.87351981	     -0.27158796	      0.39579011	      0.32284404	      0.96811636	     -0.17816166	     -0.53744072	      4.56293131	      7.74813675	      6.20646001	      0.10832316	     10.13696376	      1.78680621	     -6.03993479	     19.60056907	     -2.49595004	      9.53280389	     27.30230491	      0.47651511	      6.03263517	      1.51128324	     -6.03993479	     -5.02015079	      1.00847338	      1.43910518	    -11.12374083	     -6.92690061	    -16.47135989	     39.68527647	    111.54306193	    -12.54200151	     -4.63347840	    -18.22960679	     20.41160569	    106.93616507
      0.35000000	      2.04899035	     -0.34177070	     -0.02437357	      0.33356376	      0.96768407	     -0.17783070	     -1.47532553	      4.60778094	      7.94227066	      6.20117659	      0.10823095	     10.94670391	      2.48913441	     -6.12965887	     19.89608417	     -2.66374976	     10.27165618	     24.60398076	      0.42942047	      5.79637956	      2.36719839	     -6.12965887	     -5.42700577	      1.14908442	      1.86755397	    -10.70350473	     -7.23597823	    -16.15131136	     40.55506345	    111.46319684	    -12.99170514	     -4.47695974	    -19.62850161	     20.90837667	    106.74191486
      0.36000000	      1.94629812	     -0.58648056	     -0.44444050	      0.34421257	      0.96661227	     -0.17753639	     -2.03704435	      4.86580731	      8.32520401	      6.31822819	      0.11027388	     11.40425932	      2.46078913	     -6.13789591	     20.56779977	     -3.03756488	     11.01633529	     22.19388181	      0.38735631	      5.75961666	      3.02433414	     -6.13789591	     -5.43641699	      1.51727820	      2.28557907	    -10.20843795	     -7.54090525	    -16.04975675	     41.06481283	    111.49246278	    -13.37054869	     -4.46748619	    -19.74793645	     20.84227628	    106.72205429
      0.37000000	      2.17574756	     -0.58314666	     -0.87783202	      0.35490899	      0.96591778	     -0.17731999	     -3.06813802	      4.82613576	      8.93250069	      6.27277284	      0.10948054	     12.21211535	      2.38756363	     -6.15802660	     20.69038854	     -3.16152372	     11.84943543	     19.63926622	      0.34276986	      5.62407671	      4.04417946	     -6.15802660	     -5.94492002	      1.55707112	      2.84273249	     -9.88365924	     -7.83683681	    -15.68244795	     41.92665726	    111.55019671	    -13.56051218	     -4.45961386	    -20.05432466	     20.88758586	    106.66917924
      0.38000000	      2.26204917	     -0.75338991	     -1.29858792	      0.36564029	      0.96481534	     -0.17719873	     -3.91864978	      4.96453875	      9.48472289	      6.27514098	      0.10952187	     12.84407927	      2.33756313	     -6.18052513	     21.02881112	     -3.49169569	     12.60173192	     17.37407134	      0.30323475	      5.71877326	      4.82939559	     -6.18052513	     -6.22363072	      1.81220075	      3.30546139	     -9.49753794	     -8.17608725	    -15.41641568	     42.70922762	    111.58301441	    -13.78503722	     -4.41444932	    -20.39385597	     20.92524443	    106.60857604
      0.39000000	      2.20030172	     -0.99788206	     -1.70943765	      0.37633294	      0.96335149	     -0.17719268	     -4.55752281	      5.18224793	     10.01136932	      6.37744566	      0.11130742	     13.37109558	      2.29143239	     -6.19173091	     21.56652619	     -3.90131231	     13.32790129	     15.36080912	      0.26809669	      5.86538493	      5.46049651	     -6.19173091	     -6.33023426	      2.17644249	      3.68031791	     -9.03135229	     -8.44800643	    -15.28718913	     43.29520716	    111.61025891	    -14.03149715	     -4.33058122	    -20.57631059	     20.88976135	    106.57319467
      0.40000000	      2.20072657	     -1.22276793	     -2.09481319	      0.38718188	      0.96189421	     -0.17727627	     -5.33144691	      5.35923953	     10.48501469	      6.37259528	      0.11122277	     13.98057840	      2.19877175	     -6.20163264	     21.99333943	     -4.29446719	     13.88633887	     13.46922855	      0.23508239	      5.98749966	      6.05176182	     -6.20163264	     -6.49872469	      2.49852722	      4.03553666	     -8.60949656	     -8.69142524	    -15.15014687	     43.90130515	    111.64163587	    -14.21157259	     -4.23583669	    -20.75786162	     20.85393952	    106.53765806
      0.41000000	      2.33211427	     -1.38158789	     -2.44535435	      0.39809595	      0.96054167	     -0.17745104	     -6.32437286	      5.43358196	     11.07019378	      6.25345594	      0.10914340	     14.64902639	      2.10708235	     -6.21464286	     22.22709190	     -4.61364057	     14.43350119	     11.69320611	      0.20408495	      6.00017911	      6.67835887	     -6.21464286	     -6.85623318	      2.71809245	      4.40329569	     -8.23036259	     -8.94945098	    -15.00710462	     44.58901458	    111.67146119	    -14.31890387	     -4.18227311	    -21.01807765	     20.84361272	    106.49109261
